<?xml version="1.0" encoding="UTF-8"?>
<svg id="Layer_2" data-name="Layer 2" xmlns="http://www.w3.org/2000/svg" xmlns:xlink="http://www.w3.org/1999/xlink" viewBox="0 0 243.78 153.07">
  <defs>
    <clipPath id="clippath">
      <rect id="SVGID" fill="none" x="45.35" y="-45.35" width="153.07" height="243.78" rx="9.05" ry="9.05" transform="translate(45.35 198.43) rotate(-90)"/>
    </clipPath>
    <clipPath id="clippath-1">
      <rect fill="none" x="-1.42" width="245.24" height="154.45"/>
    </clipPath>
    <linearGradient id="linear-gradient" x1="-1008.04" y1="-1042.15" x2="-717.96" y2="-1042.15" gradientTransform="translate(985.37 1041.44)" gradientUnits="userSpaceOnUse">
      <stop offset=".03" stop-color="#fff"/>
      <stop offset=".19" stop-color="#d5d5d5"/>
      <stop offset=".29" stop-color="#c2c2c2"/>
      <stop offset=".46" stop-color="#c9c9c9"/>
      <stop offset=".71" stop-color="#dfdfdf"/>
      <stop offset="1" stop-color="#fff"/>
    </linearGradient>
    <linearGradient id="linear-gradient-2" x1="144.44" y1="-89.44" x2="164.56" y2="-89.44" gradientTransform="translate(132.12 220.65) rotate(-90)" gradientUnits="userSpaceOnUse">
      <stop offset="0" stop-color="#ccaa4a"/>
      <stop offset=".48" stop-color="#f4f08d"/>
      <stop offset="1" stop-color="#d3ac3e"/>
    </linearGradient>
    <clipPath id="clippath-2">
      <path id="SVGID-3" data-name="SVGID" fill="url(#linear-gradient-2)" d="M53.63,55.17c2.19,0,3.96,1.77,3.96,3.95v14.1c0,2.18-1.77,3.95-3.96,3.95h-21.91c-2.19,0-3.96-1.77-3.96-3.95v-14.1c0-2.18,1.77-3.95,3.96-3.95h21.91Z"/>
    </clipPath>
    <linearGradient id="linear-gradient-3" x1="-1343.35" y1="468.2" x2="-1342.35" y2="468.2" gradientTransform="translate(-33377.11 -28759.07) rotate(-120) scale(31.03)" gradientUnits="userSpaceOnUse">
      <stop offset="0" stop-color="#d3d5d6"/>
      <stop offset=".48" stop-color="#edf8fe"/>
      <stop offset="1" stop-color="#c2c4c6"/>
    </linearGradient>
  </defs>
  <g id="Layer_1-2" data-name="Layer 1">
    <g>
      <g clip-path="url(#clippath)">
        <g clip-path="url(#clippath-1)">
          <rect fill="#fff" x="-1.42" y="-.66" width="245.24" height="155.8"/>
          <path fill="url(#linear-gradient)" d="M-46.27,26.34V-28.17s290.08-122,290.08-122v58.7c-15.47,9.51-27.76,22.29-36.88,38.36-9.12,16.08-13.68,33.61-13.68,52.62s4.56,36.55,13.68,52.62c9.12,16.08,21.41,28.86,36.88,38.36v58.28-.42.42c-4.14-1.4-8.56-3.35-13.26-5.87L-46.27,26.34ZM141.45-.49c0-19.56,3.46-38.57,10.36-57.02L17.13-.91l134.68,56.6c-6.9-18.16-10.36-36.89-10.36-56.18Z"/>
        </g>
      </g>
      <g>
        <path id="SVGID-2" data-name="SVGID" fill="url(#linear-gradient-2)" d="M53.63,55.17c2.19,0,3.96,1.77,3.96,3.95v14.1c0,2.18-1.77,3.95-3.96,3.95h-21.91c-2.19,0-3.96-1.77-3.96-3.95v-14.1c0-2.18,1.77-3.95,3.96-3.95h21.91Z"/>
        <g clip-path="url(#clippath-2)">
          <polygon fill="url(#linear-gradient-3)" points="67.14 71.67 50.13 42.27 18.21 60.67 35.22 90.06 67.14 71.67"/>
        </g>
      </g>
      <path fill="#231f20" fill-rule="evenodd" d="M42.85,61.89v-1.56s5.66-5.17,5.66-5.17h-.52s-5.33,4.81-5.33,4.81l-5.26-4.81h-.51s5.63,5.15,5.63,5.15v1.25s0,.44,0,.44c0,0-.07.98,1,.98h.61s2.15,0,2.15,0v6.58h-7.09v-5.62s0-.51,0-.51c0,0-.09-.77-.88-.77l-.96-.03h-9.54s0,.36,0,.36h9.83s.75,0,.75,0c0,0,.45-.04.45.51v.76s0,0,0,0v5.3h-11.02s0,.36,0,.36h14.71s0,2.1,0,2.1l-5.64,5.14h.51s5.32-4.82,5.32-4.82l5.36,4.82h.48s-5.64-5.14-5.64-5.14v-2.12h14.7s0-.35,0-.35h-10.95v-6.58h10.95s0-.36,0-.36h-13.12s-.36,0-.36,0h-.44s-.83.11-.83-.75"/>
      <g>
        <path fill="#231f20" d="M226.81,22.38l-.17-.02h-.14s-.15-.05-.15-.05l-.18-.03-.32-.07-.35-.09c-.07-.02-.14-.04-.22-.06l-.18-.06-.18-.06-.15-.06-.17-.07c-.16-.06-.32-.13-.47-.22l-.11-.06-.11-.06c-.43-.23-.84-.48-1.22-.79l-.13-.1c-.51-.41-.96-.89-1.37-1.42s-.74-1.09-1-1.69l-.06-.13-.06-.15s-.04-.09-.06-.14l-.07-.21-.09-.29-.07-.25-.04-.15-.08-.35-.05-.26-.02-.1s-.01-.1-.02-.15l-.02-.15-.03-.22c0-.08-.01-.16-.02-.25v-.39c0-.09,0-.18,0-.28v-.37c0-.08.01-.16.02-.26l.03-.22.02-.15.02-.15s.02-.07.02-.11l.04-.26.03-.13c.02-.09.04-.18.07-.29l.06-.23.06-.23.06-.18.06-.17.05-.14.07-.18s.03-.07.05-.11l.07-.16c.25-.53.55-1.04.9-1.51.72-.96,1.75-1.84,2.82-2.38l.13-.07.13-.06.14-.06.14-.06.14-.06.18-.07.15-.06.18-.06.21-.06.21-.06.27-.07.26-.05.4-.07s.5-.06.46-.06l.27-.02h.37c.1-.01.21-.01.32,0h.37c.09.01.18.01.28.03l.17.02.16.02s.1,0,.14.02l.11.02.25.04.12.03c.1.02.2.04.3.07l.21.06.24.07.18.06.16.06.14.05.17.07.13.06.13.06.21.09.13.07.1.05.11.06.1.06.13.07.08.05.34.22c.76.49,1.51,1.24,2.04,1.98.36.49.66,1.02.9,1.57l.05.11.07.18.05.14.06.16c.02.07.04.13.06.2l.06.21.06.22.06.24.04.18.07.38s0,.09.01.13l.02.16.02.21c.01.08.02.17.02.27v1.02c0,.08,0,.16-.02.25l-.02.21-.02.16c0,.05,0,.1-.02.15l-.06.32-.07.33-.06.26-.06.21-.06.2c-.28.86-.71,1.66-1.24,2.39-.46.63-1.02,1.18-1.63,1.64-.68.5-1.41.92-2.2,1.2l-.12.04-.18.06c-.07.02-.14.05-.23.06l-.34.09-.2.04s-.07.02-.1.03l-.26.04s-.08.02-.11.02h-.15s-.15.03-.15.03l-.22.03c-.09.01-.18.02-.28.02h-.98c-.08,0-.17,0-.26-.02l-.2-.02.04.02ZM227.23,21c.06,0,.11.01.17.02h.1c.16.02.32.02.48,0h.14s.09-.02.14-.03l.15-.02c.08-.01.15-.02.23-.04l.16-.04c.06-.02.13-.04.2-.06l.32-.11s.09-.04.13-.06l.14-.07c.77-.38,1.46-1.14,1.81-1.93l.05-.13c.14-.33.4-.57.73-.71.79-.32,1.45-.88,1.89-1.6.05-.09.1-.17.15-.27l.05-.1.06-.14.08-.22c.05-.14.08-.24.12-.39l.02-.07c.02-.07.03-.14.04-.23l.02-.12c.01-.06.02-.11.02-.17v-.1s0-.51,0-.51v-.12c-.01-.05-.02-.1-.03-.15l-.02-.13c-.02-.11-.04-.23-.07-.34l-.06-.22-.05-.16c-.26-.75-.8-1.44-1.45-1.89-.12-.09-.38-.24-.51-.31l-.13-.06-.14-.06c-.05-.02-.1-.04-.15-.07-.29-.14-.46-.37-.59-.66l-.07-.16c-.09-.22-.21-.4-.33-.6-.42-.63-1.01-1.1-1.69-1.41-.08-.03-.15-.06-.24-.08l-.16-.05c-.15-.05-.37-.1-.53-.12l-.11-.02c-.05,0-.1-.02-.15-.02h-.1c-.13-.02-.64-.01-.77,0l-.16.03-.1.02c-.1.02-.37.08-.46.11l-.2.07c-.75.26-1.43.8-1.87,1.44-.11.16-.29.47-.37.65l-.06.15c-.15.36-.36.56-.72.72l-.15.07-.12.06-.15.08c-.49.26-.99.71-1.31,1.17-.17.26-.34.51-.44.8l-.05.13-.06.18c-.05.16-.1.37-.13.54l-.02.13s-.02.08-.02.12v.13c-.01.16-.02.6,0,.74l.03.15.02.11c.02.11.08.37.12.48l.05.15c.02.07.05.14.08.22l.06.13c.4.86,1.2,1.62,2.09,1.97.31.12.57.35.71.66l.06.15.07.15s.04.08.06.11l.1.18c.34.61,1.02,1.24,1.64,1.53l.14.07s.09.04.14.06l.12.04.2.07c.16.06.33.09.51.12l.14.02h-.01Z"/>
        <path fill="#231f20" d="M226.54,16.74s.05-.02.07-.03l.23-.06.25-.06.25-.06.09-.03.28-.07.22-.06.17-.04.17-.04.23-.06.25-.06.14-.04s.09-.01.1-.08c0-.05,0-.31-.01-.33-.01-.01-.04,0-.06,0l-.27.07-.23.06-.25.06-.24.06-.24.06-.17.04-.15.04-.26.07-.23.06-.24.06-.25.06-.21.05-.28.07-.23.06c-.07.02-.14.04-.22.05v-1.9c0-.17.11-.33.26-.41.04-.02.09-.03.13-.04l.25-.07.26-.07.26-.06.24-.06.25-.06.25-.06.22-.06c.08-.02.16-.04.25-.07.06-.01.11-.02.16-.05v-1.66s2.05,0,2.05,0v-.39h-4.59v.39h2.05s0,1.39,0,1.39c-.08.03-.15.05-.24.07l-.26.07-.22.05c-.09.03-.17.05-.28.07v-.62h-2.1s0-2.08,0-2.08l.05-.13c.08-.12.17-.17.32-.24h5.91c.15.05.28.13.34.28l.04.09v2.08s-2.1,0-2.1,0v1.13s-.23.06-.23.06l-.24.06-.22.06-.24.06-.24.06-.23.06-.27.07-.22.06-.24.06-.25.06s-.09.02-.09.08v.34s.18-.05.18-.05l.25-.06.18-.05.15-.04.26-.07.22-.06.25-.06.16-.04.18-.05.24-.06.24-.06.11-.03.26-.07.22-.06.26-.07.22-.06s.07-.02.12-.02v1.95c0,.16-.09.31-.22.39-.07.04-.12.06-.2.07-.04,0-.09.02-.13.04l-.23.06-.26.07-.24.06-.27.07-.15.04-.18.05-.23.06-.25.06c-.06.02-.11.03-.17.05v.38s.06,0,.09-.01l.26-.07.69-.18.17-.05.24-.06v1.34s-2.44,0-2.44,0v-1.9s.02.02.02.02Z"/>
      </g>
    </g>
  </g>
</svg>